<?xml version="1.0" encoding="UTF-8"?>
<svg version="1.1" xmlns="http://www.w3.org/2000/svg" width="406" height="323">
<path d="M0 0 C6.52414099 2.10331403 12.92196426 4.46072073 19.3125 6.9375 C25.87275136 9.46186409 32.42476221 11.91746953 39.13671875 14.015625 C42.57994608 15.19938119 45.93703608 16.55795121 49.31274414 17.92089844 C60.28350154 22.32634476 71.33786673 26.56719627 82.5859375 30.2109375 C86.10289202 31.36049221 89.54987681 32.66528081 93 34 C93.87140625 34.33515625 94.7428125 34.6703125 95.640625 35.015625 C97.77160613 35.83523313 99.90174701 36.65702776 102.03125 37.48046875 C105.0657464 38.64849646 108.10956407 39.7899456 111.15625 40.92578125 C112.52390503 41.43878784 112.52390503 41.43878784 113.91918945 41.9621582 C115.71557577 42.63562484 117.51350999 43.3049824 119.31323242 43.96948242 C129.90614396 47.95400896 137.31427995 50.8801335 143 61 C143.73928216 62.11137119 144.48790761 63.21664452 145.25 64.3125 C147 67 147 67 147.9375 69.25 C149.45521858 71.74977178 151.2942092 72.03364614 154 73 C154.63035156 73.50128418 155.26070312 74.00256836 155.91015625 74.51904297 C158.19565705 76.13865137 159.30799976 76.43847276 162.0625 76.6328125 C162.94164062 76.69758789 163.82078125 76.76236328 164.7265625 76.82910156 C173.0016296 77.26112326 181.27939331 77.65346563 189.55957031 77.97412109 C212.40476774 78.87371108 212.40476774 78.87371108 218.875 84.5 C219.57625 85.325 220.2775 86.15 221 87 C224.32647763 89.88294728 227.97020659 91.28360651 232 93 C232.66 93.66 233.32 94.32 234 95 C233.54385965 102.18421053 233.54385965 102.18421053 231 106 C230.43667969 105.68675781 229.87335938 105.37351562 229.29296875 105.05078125 C223.99881809 102.62467132 218.05085787 102.38639727 212.5 104.0625 C204.10173448 107.34492068 197.30453833 112.27031524 190.8125 118.4609375 C189 120 189 120 187 120 C186.58814453 121.11181641 186.58814453 121.11181641 186.16796875 122.24609375 C185.08414624 124.80159498 183.90272607 126.80132924 182.3125 129.0625 C179.91581948 132.55910636 177.76659734 136.11847589 175.6875 139.8125 C160.67184599 165.73668165 135.17823854 190.04616285 106 199 C105.34 199 104.68 199 104 199 C105.49920512 195.88626628 107.08152136 192.87771795 109 190 C109.66 190 110.32 190 111 190 C111.24492187 189.29488281 111.48984375 188.58976563 111.7421875 187.86328125 C113.17467528 184.60236963 114.99521869 182.03865885 117.125 179.1875 C117.84945312 178.21167969 118.57390625 177.23585937 119.3203125 176.23046875 C119.87460938 175.49441406 120.42890625 174.75835937 121 174 C117.7 172.68 114.4 171.36 111 170 C111 166.06111246 112.28743867 165.26454258 114.9375 162.4375 C117.80698827 159.45371254 117.80698827 159.45371254 120 156 C119.34 156.33 118.68 156.66 118 157 C115.26513675 157.26212747 112.55346986 157.46744636 109.8125 157.625 C109.06935547 157.6765625 108.32621094 157.728125 107.56054688 157.78125 C102.86821367 158.06089825 98.62957605 157.8216731 94 157 C95.91861848 152.29066373 99.3904613 149.22833216 103.375 146.1875 C106.18159183 143.84867348 108.39384914 141.33621701 110.7578125 138.5625 C114.2853081 134.53107645 117.96963442 130.64550771 121.64453125 126.74853516 C122.19238281 126.16378418 122.74023438 125.5790332 123.3046875 124.9765625 C123.79952637 124.45143066 124.29436523 123.92629883 124.80419922 123.38525391 C126.10712552 121.99069181 126.10712552 121.99069181 127 120 C122.97402932 118.96978528 118.95849471 117.97235675 114.88671875 117.140625 C101.4658518 114.34566317 90.90858554 109.99825375 82 99 C82 98.34 82 97.68 82 97 C96.05810104 98.29602884 110.02498705 99.99956068 124 102 C110.56188578 96.80364522 97.38762912 93.23384308 83 92.0625 C67.47998385 90.74724439 53.19903006 87.35343735 42.5 75.25 C38 69.65116279 38 69.65116279 38 65 C45.94685847 66.59455725 53.79378908 68.41770369 61.625 70.5 C62.44170166 70.7165625 63.25840332 70.933125 64.09985352 71.15625 C67.52021889 72.06586666 70.93801788 72.98302354 74.3515625 73.91796875 C82.17243561 75.99440002 89.97223359 77.06781401 98 78 C84.64426889 73.4154168 71.20115827 69.1941484 57.65966797 65.19750977 C25.39292992 55.6482239 25.39292992 55.6482239 17.75 42.91796875 C15.76732117 39.20733025 15 37.3421097 15 33 C21.36724388 33.38203463 26.69253996 35.20614852 32.65234375 37.41796875 C38.9348992 39.73573238 45.30537818 41.79690422 51.66186523 43.90087891 C56.77121218 45.59239785 61.87625137 47.29347444 66.96875 49.03515625 C67.91161865 49.35564941 68.8544873 49.67614258 69.82592773 50.00634766 C71.59791562 50.60928831 73.36837502 51.21674773 75.13696289 51.82958984 C79.77781705 53.40125887 84.12414094 54.4829626 89 55 C76.67710609 49.38719976 64.27849684 44.24036999 51.5 39.75 C50.30600586 39.33016846 49.11201172 38.91033691 47.88183594 38.4777832 C45.59967964 37.67623221 43.31745658 36.87487127 41.03515625 36.07373047 C11.7055123 25.69794427 11.7055123 25.69794427 4 15 C3.32421875 12.79296875 3.32421875 12.79296875 3 11 C2.34 11 1.68 11 1 11 C-0.62950412 6.87831311 -1.26264601 4.29299643 0 0 Z M204 89 C204 89.66 204 90.32 204 91 C207.35327639 93.23551759 207.90743657 93.17283528 211.6875 92.625 C212.89986328 92.45871094 212.89986328 92.45871094 214.13671875 92.2890625 C214.75160156 92.19367188 215.36648438 92.09828125 216 92 C213.50494038 89.50494038 212.32671112 89.64051624 208.875 89.375 C207.96492187 89.30023438 207.05484375 89.22546875 206.1171875 89.1484375 C205.41851562 89.09945312 204.71984375 89.05046875 204 89 Z " fill="#063D74" transform="translate(61,61)"/>
<path d="M0 0 C6.52414099 2.10331403 12.92196426 4.46072073 19.3125 6.9375 C25.87275136 9.46186409 32.42476221 11.91746953 39.13671875 14.015625 C42.57994608 15.19938119 45.93703608 16.55795121 49.31274414 17.92089844 C60.28350154 22.32634476 71.33786673 26.56719627 82.5859375 30.2109375 C86.10289202 31.36049221 89.54987681 32.66528081 93 34 C93.87140625 34.33515625 94.7428125 34.6703125 95.640625 35.015625 C97.77160613 35.83523313 99.90174701 36.65702776 102.03125 37.48046875 C105.0657464 38.64849646 108.10956407 39.7899456 111.15625 40.92578125 C112.52390503 41.43878784 112.52390503 41.43878784 113.91918945 41.9621582 C115.71557577 42.63562484 117.51350999 43.3049824 119.31323242 43.96948242 C129.90614396 47.95400896 137.31427995 50.8801335 143 61 C143.73928216 62.11137119 144.48790761 63.21664452 145.25 64.3125 C147 67 147 67 147.9375 69.25 C149.45521858 71.74977178 151.2942092 72.03364614 154 73 C154.63083496 73.50136475 155.26166992 74.00272949 155.91162109 74.51928711 C158.19182243 76.1360069 159.29128951 76.43630534 162.0390625 76.62890625 C162.91723633 76.69352051 163.79541016 76.75813477 164.70019531 76.82470703 C173.13569388 77.27281949 181.57237448 77.69093408 190.01220703 78.04956055 C192.55806115 78.1590622 195.10318175 78.27981189 197.6484375 78.40234375 C198.81721939 78.44777565 198.81721939 78.44777565 200.00961304 78.49412537 C203.77304061 78.68360051 206.79467858 78.91235838 210 81 C208.68773437 80.93941406 207.37546875 80.87882812 206.0234375 80.81640625 C199.68292635 80.52872635 193.341677 80.26062849 187 80 C185.70610352 79.94666504 184.41220703 79.89333008 183.07910156 79.83837891 C179.05306225 79.67459343 175.02659956 79.52437941 171 79.375 C169.71915527 79.32287354 168.43831055 79.27074707 167.11865234 79.21704102 C158.50534254 78.88181338 158.50534254 78.88181338 150 80 C149.67 80.33 149.34 80.66 149 81 C140.37801047 83.03469893 131.81825026 83.30776146 123 83.25 C121.81921875 83.25773437 120.6384375 83.26546875 119.421875 83.2734375 C111.90323758 83.25687662 104.28582661 83.03837268 97 81 C96.67 80.34 96.34 79.68 96 79 C96.66 78.67 97.32 78.34 98 78 C84.64426889 73.4154168 71.20115827 69.1941484 57.65966797 65.19750977 C25.39292992 55.6482239 25.39292992 55.6482239 17.75 42.91796875 C15.76732117 39.20733025 15 37.3421097 15 33 C21.36724388 33.38203463 26.69253996 35.20614852 32.65234375 37.41796875 C38.9348992 39.73573238 45.30537818 41.79690422 51.66186523 43.90087891 C56.77121218 45.59239785 61.87625137 47.29347444 66.96875 49.03515625 C67.91161865 49.35564941 68.8544873 49.67614258 69.82592773 50.00634766 C71.59791562 50.60928831 73.36837502 51.21674773 75.13696289 51.82958984 C79.77781705 53.40125887 84.12414094 54.4829626 89 55 C76.67710609 49.38719976 64.27849684 44.24036999 51.5 39.75 C50.30600586 39.33016846 49.11201172 38.91033691 47.88183594 38.4777832 C45.59967964 37.67623221 43.31745658 36.87487127 41.03515625 36.07373047 C11.7055123 25.69794427 11.7055123 25.69794427 4 15 C3.32421875 12.79296875 3.32421875 12.79296875 3 11 C2.34 11 1.68 11 1 11 C-0.62950412 6.87831311 -1.26264601 4.29299643 0 0 Z " fill="#D02B2F" transform="translate(61,61)"/>
<path d="M0 0 C0.02730648 2.8125674 0.04698506 5.62486213 0.0625 8.4375 C0.07087891 9.22060547 0.07925781 10.00371094 0.08789062 10.81054688 C0.12382507 19.54261589 -0.80309661 27.53450021 -3.4375 35.875 C-3.69047852 36.68001953 -3.94345703 37.48503906 -4.20410156 38.31445312 C-7.68461358 48.77624826 -12.88539995 58.82809992 -19 68 C-19.66 68 -20.32 68 -21 68 C-21.226875 68.70125 -21.45375 69.4025 -21.6875 70.125 C-23.36760258 73.80522471 -25.03252537 76.22605633 -28 79 C-33.65504464 79.39271143 -38.82815761 78.64177972 -44.375 77.625 C-53.63806377 76.03064621 -62.90563706 75.27489851 -72.27880859 74.64697266 C-73.86943115 74.5394165 -73.86943115 74.5394165 -75.4921875 74.4296875 C-76.43433105 74.37022949 -77.37647461 74.31077148 -78.34716797 74.24951172 C-80.95450652 74.00427888 -83.44372107 73.56104967 -86 73 C-85.44547187 69.11830307 -83.72348934 67.70424207 -81 65 C-79.59381967 63.23269943 -78.2213235 61.43831395 -76.875 59.625 C-76.48884521 59.10607178 -76.10269043 58.58714355 -75.70483398 58.05249023 C-72.77168101 54.09276315 -69.91334593 50.0816612 -67.0625 46.0625 C-51.34995767 23.96090443 -51.34995767 23.96090443 -45 19 C-44.34 19 -43.68 19 -43 19 C-42.505 17.515 -42.505 17.515 -42 16 C-30.72044948 7.91855633 -14.05900424 0 0 0 Z M-40 36 C-42.12522039 38.67962571 -41.9997086 40.01631842 -41.9375 43.5 C-40.81027519 47.70830595 -39.70788341 48.80897798 -36 51 C-33.00900719 52.04684748 -31.50078695 52.13435747 -28.4375 51.3125 C-25.56742 49.76707231 -23.90147186 48.67614558 -22 46 C-21.2938491 41.05694371 -21.18348071 39.16292141 -24.0625 35.0625 C-30.1371412 30.79732639 -34.43767318 31.2138118 -40 36 Z " fill="#D1292E" transform="translate(308,58)"/>
<path d="M0 0 C6.59782551 0.39586953 12.19023788 2.36157325 18.3671875 4.65625 C23.53531772 6.56790247 28.76446211 8.28358739 34 10 C30.484375 14.6875 30.484375 14.6875 29 16 C27.68 16 26.36 16 25 16 C24.67 17.32 24.34 18.64 24 20 C22.68 20 21.36 20 20 20 C20 19.34 20 18.68 20 18 C19.34 18 18.68 18 18 18 C18.495 18.45375 18.99 18.9075 19.5 19.375 C21 21 21 21 21 23 C22.65 23 24.3 23 26 23 C26.66 24.32 27.32 25.64 28 27 C19.82516142 26.05113481 12.0245937 21.69310781 6.5 15.5625 C2.82630533 10.73669991 0 6.1342244 0 0 Z " fill="#D2363B" transform="translate(76,94)"/>
<path d="M0 0 C3.03003306 0.33667034 3.99042843 0.98986539 6.125 3.25 C9.42511048 6.40662742 12.67886888 7.99312256 16.79296875 9.88671875 C19 11 19 11 21 13 C20.54385965 20.18421053 20.54385965 20.18421053 18 24 C17.43667969 23.68546875 16.87335938 23.3709375 16.29296875 23.046875 C9.40312006 19.90125413 2.04128424 20.94204011 -5 23 C-5 20.36 -5 17.72 -5 15 C-5.66 14.67 -6.32 14.34 -7 14 C-7 13.34 -7 12.68 -7 12 C-7.66 12 -8.32 12 -9 12 C-8.67 11.34 -8.34 10.68 -8 10 C-6.700625 10.020625 -5.40125 10.04125 -4.0625 10.0625 C-2.70834367 10.08399454 -1.35243917 10.07148199 0 10 C0.33 9.67 0.66 9.34 1 9 C-2.3 8.34 -5.6 7.68 -9 7 C-9.33 7.66 -9.66 8.32 -10 9 C-10.33 8.01 -10.66 7.02 -11 6 C-4.565 5.505 -4.565 5.505 2 5 C2 3.68 2 2.36 2 1 C1.34 0.67 0.68 0.34 0 0 Z " fill="#214D7E" transform="translate(274,143)"/>
<path d="M0 0 C10.07226816 2.07740531 20.03848241 4.45140394 30 7 C30 7.33 30 7.66 30 8 C27.03 8 24.06 8 21 8 C19.37049588 12.12168689 18.73735399 14.70700357 20 19 C21.32 19.33 22.64 19.66 24 20 C24 20.66 24 21.32 24 22 C15.13410805 20.99485527 8.62166732 15.37812096 3.15625 8.578125 C0.73603903 5.27486408 0 4.26365907 0 0 Z " fill="#3A608C" transform="translate(99,126)"/>
<path d="M0 0 C1.7074998 1.28062485 3.37373596 2.61767557 5 4 C5 4.66 5 5.32 5 6 C5.7425 6.268125 6.485 6.53625 7.25 6.8125 C10 8 10 8 11.91943359 9.53491211 C14.19309694 11.1359745 15.30379515 11.4371819 18.0390625 11.62890625 C18.91723633 11.69352051 19.79541016 11.75813477 20.70019531 11.82470703 C29.13569388 12.27281949 37.57237448 12.69093408 46.01220703 13.04956055 C48.55806115 13.1590622 51.10318175 13.27981189 53.6484375 13.40234375 C54.42762543 13.43263168 55.20681335 13.46291962 56.00961304 13.49412537 C59.77304061 13.68360051 62.79467858 13.91235838 66 16 C64.03160156 15.90912109 64.03160156 15.90912109 62.0234375 15.81640625 C55.68292635 15.52872635 49.341677 15.26062849 43 15 C41.70610352 14.94666504 40.41220703 14.89333008 39.07910156 14.83837891 C35.05306225 14.67459343 31.02659956 14.52437941 27 14.375 C25.71915527 14.32287354 24.43831055 14.27074707 23.11865234 14.21704102 C14.50534254 13.88181338 14.50534254 13.88181338 6 15 C5.67 15.33 5.34 15.66 5 16 C-3.8735691 18.13681205 -12.67332852 18.24816986 -21.75 18.125 C-23.03132812 18.11597656 -24.31265625 18.10695312 -25.6328125 18.09765625 C-28.75541221 18.07435327 -31.87760025 18.04164054 -35 18 C-35 17.67 -35 17.34 -35 17 C-34.21761963 16.97494385 -33.43523926 16.9498877 -32.62915039 16.92407227 C-29.10675051 16.80850212 -25.5846444 16.68560051 -22.0625 16.5625 C-20.21495117 16.50352539 -20.21495117 16.50352539 -18.33007812 16.44335938 C-17.16025391 16.40146484 -15.99042969 16.35957031 -14.78515625 16.31640625 C-13.70113525 16.27974854 -12.61711426 16.24309082 -11.50024414 16.20532227 C-9.060737 16.27635735 -9.060737 16.27635735 -8 15 C-5.98035801 14.92755947 -3.95832876 14.91622812 -1.9375 14.9375 C-0.28041016 14.95103516 -0.28041016 14.95103516 1.41015625 14.96484375 C2.26480469 14.97644531 3.11945313 14.98804688 4 15 C3.505 13.02 3.505 13.02 3 11 C3.66 11 4.32 11 5 11 C4.505 10.01 4.505 10.01 4 9 C1.47266765 8.34444881 1.47266765 8.34444881 -1 8 C-1 7.34 -1 6.68 -1 6 C0.32 5.67 1.64 5.34 3 5 C2.505 4.54625 2.01 4.0925 1.5 3.625 C0 2 0 2 0 0 Z " fill="#A26F80" transform="translate(205,126)"/>
<path d="M0 0 C11.0569478 1.03624436 22.04871382 2.12149471 33 4 C33 4.66 33 5.32 33 6 C24.585 6.495 24.585 6.495 16 7 C15.67 8.65 15.34 10.3 15 12 C14.67 11.01 14.34 10.02 14 9 C13.67 9.66 13.34 10.32 13 11 C8.64645044 10.50441205 6.69933969 9.19912401 3.6875 6.0625 C2.99011719 5.35222656 2.29273438 4.64195312 1.57421875 3.91015625 C0 2 0 2 0 0 Z " fill="#09366C" transform="translate(143,158)"/>
<path d="M0 0 C4.72065967 1.54269924 9.41664092 3.07794619 14 5 C14 5.66 14 6.32 14 7 C14.66 7.33 15.32 7.66 16 8 C15.01 8.33 14.02 8.66 13 9 C12.690625 9.99 12.38125 10.98 12.0625 12 C11.711875 12.99 11.36125 13.98 11 15 C8.875 15.875 8.875 15.875 7 16 C7 15.34 7 14.68 7 14 C5.68 13.67 4.36 13.34 3 13 C3 12.34 3 11.68 3 11 C2.34 11 1.68 11 1 11 C-0.62950412 6.87831311 -1.26264601 4.29299643 0 0 Z " fill="#C92025" transform="translate(61,61)"/>
<path d="M0 0 C0.99386719 0.00902344 1.98773438 0.01804688 3.01171875 0.02734375 C4.15060547 0.04474609 4.15060547 0.04474609 5.3125 0.0625 C4.9825 2.0425 4.6525 4.0225 4.3125 6.0625 C3.44625 6.248125 3.44625 6.248125 2.5625 6.4375 C0.28938833 7.06891991 -1.59846726 7.98196582 -3.6875 9.0625 C-4.0175 9.0625 -4.3475 9.0625 -4.6875 9.0625 C-5.6775 9.3925 -6.6675 9.7225 -7.6875 10.0625 C-10.875 8.125 -10.875 8.125 -13.6875 6.0625 C-13.3575 5.0725 -13.0275 4.0825 -12.6875 3.0625 C-11.6975 3.0625 -10.7075 3.0625 -9.6875 3.0625 C-9.3575 2.4025 -9.0275 1.7425 -8.6875 1.0625 C-5.53819107 0.01273036 -3.29935544 -0.03881595 0 0 Z " fill="#12467A" transform="translate(167.6875,163.9375)"/>
<path d="M0 0 C5.66104589 0.49658297 9.87674471 1.54510684 15 4 C15 4.33 15 4.66 15 5 C12.69 5.33 10.38 5.66 8 6 C7.83318891 8.91652174 7.83318891 8.91652174 8 12 C8.66 12.66 9.32 13.32 10 14 C9.67 14.99 9.34 15.98 9 17 C4.78458709 13.2529663 1.90736716 9.35980829 0 4 C0 2.68 0 1.36 0 0 Z " fill="#CD4C50" transform="translate(76,94)"/>
<path d="M0 0 C4.875 4.75 4.875 4.75 6 7 C4.35 7 2.7 7 1 7 C3.1385485 9.1385485 4.13275314 9.42655063 7 10 C7 10.66 7 11.32 7 12 C6.34 12 5.68 12 5 12 C5.33 13.32 5.66 14.64 6 16 C2.37 16 -1.26 16 -5 16 C-4.01 15.01 -3.02 14.02 -2 13 C-2 12.030625 -2 11.06125 -2 10.0625 C-2 6.56943552 -1.31859817 5.51181468 1 3 C0.34 2.67 -0.32 2.34 -1 2 C-0.67 1.34 -0.34 0.68 0 0 Z " fill="#D02122" transform="translate(203,125)"/>
<path d="M0 0 C2.00240549 0.31856451 4.00211562 0.65421232 6 1 C7.0828125 1.185625 7.0828125 1.185625 8.1875 1.375 C10.49184499 2.16960172 11.55041687 3.04306277 13 5 C13 6.32 13 7.64 13 9 C11.34385343 9.38218767 9.67542976 9.71395102 8 10 C7.67 9.67 7.34 9.34 7 9 C6.01 9.33 5.02 9.66 4 10 C0.06153846 5.69230769 0.06153846 5.69230769 -0.25 2.1875 C-0.1675 1.465625 -0.085 0.74375 0 0 Z " fill="#073364" transform="translate(101,128)"/>
<path d="M0 0 C0 3 0 3 -1 5 C-0.34 5 0.32 5 1 5 C0.67 5.99 0.34 6.98 0 8 C1.65 8.33 3.3 8.66 5 9 C2.10357159 11.35082212 -0.65356331 12.83519406 -4.125 14.1875 C-4.99382812 14.53167969 -5.86265625 14.87585938 -6.7578125 15.23046875 C-9 16 -9 16 -11 16 C-9.50079488 12.88626628 -7.91847864 9.87771795 -6 7 C-5.34 7 -4.68 7 -4 7 C-3.71125 6.21625 -3.4225 5.4325 -3.125 4.625 C-2 2 -2 2 0 0 Z " fill="#325682" transform="translate(176,244)"/>
<path d="M0 0 C6.94966093 -0.1346906 13.71856383 0.24284996 20.625 1 C21.98818359 1.14308594 21.98818359 1.14308594 23.37890625 1.2890625 C25.58647043 1.52143768 27.79342261 1.75846489 30 2 C30 2.66 30 3.32 30 4 C31.27875 4.020625 32.5575 4.04125 33.875 4.0625 C34.59429687 4.07410156 35.31359375 4.08570313 36.0546875 4.09765625 C38.08185404 4.12649242 38.08185404 4.12649242 40 3 C39.67 3.99 39.34 4.98 39 6 C33.05836088 6.15600194 27.59432192 5.58902024 21.75 4.5625 C14.51158287 3.34938509 7.33418076 2.42453342 0 2 C0 1.34 0 0.68 0 0 Z " fill="#DD7D7E" transform="translate(241,131)"/>
<path d="M0 0 C11.0569478 1.03624436 22.04871382 2.12149471 33 4 C33 4.33 33 4.66 33 5 C25.10276444 5.48350422 17.66467297 3.67664721 10 2 C10 3.32 10 4.64 10 6 C9.34 6 8.68 6 8 6 C8.99 7.65 9.98 9.3 11 11 C7.84164893 9.60249952 5.67727175 7.94801766 3.25 5.5 C2.63640625 4.8915625 2.0228125 4.283125 1.390625 3.65625 C0 2 0 2 0 0 Z " fill="#6E89AD" transform="translate(143,158)"/>
<path d="M0 0 C4.0014399 0.09105679 7.99820175 0.05913988 12 0 C11.67 0.99 11.34 1.98 11 3 C13.31 3.33 15.62 3.66 18 4 C18 4.99 18 5.98 18 7 C16.845 6.731875 15.69 6.46375 14.5 6.1875 C3.37490209 3.73472251 -7.60442104 1.62589354 -19 1 C-19 0.67 -19 0.34 -19 0 C-12.42097094 -0.70219522 -6.55811917 -1.05398344 0 0 Z " fill="#406591" transform="translate(159,152)"/>
<path d="M0 0 C0.33 0.99 0.66 1.98 1 3 C0.67 3.66 0.34 4.32 0 5 C0.66 5 1.32 5 2 5 C1.67 5.61875 1.34 6.2375 1 6.875 C-0.14193235 8.91018344 -0.14193235 8.91018344 0 11 C0.33 11.66 0.66 12.32 1 13 C-1.97 12.67 -4.94 12.34 -8 12 C-8 8.03869629 -6.65122875 7.17085599 -4 4.3125 C-3.2575 3.50425781 -2.515 2.69601563 -1.75 1.86328125 C-1.1725 1.24839844 -0.595 0.63351563 0 0 Z M2 4 C4 5 4 5 4 5 Z " fill="#2A4E7A" transform="translate(180,219)"/>
<path d="M0 0 C1.7074998 1.28062485 3.37373596 2.61767557 5 4 C5 4.66 5 5.32 5 6 C5.7425 6.2475 6.485 6.495 7.25 6.75 C10.20124062 8.09147301 11.84814974 9.60905526 14 12 C10.98675805 13.50662097 8.31713623 13.17770373 5 13 C4.34 12.34 3.68 11.68 3 11 C3.66 11 4.32 11 5 11 C4.67 10.34 4.34 9.68 4 9 C1.47266765 8.34444881 1.47266765 8.34444881 -1 8 C-1 7.34 -1 6.68 -1 6 C0.32 5.67 1.64 5.34 3 5 C2.2575 4.319375 2.2575 4.319375 1.5 3.625 C0 2 0 2 0 0 Z " fill="#CF4147" transform="translate(205,126)"/>
<path d="M0 0 C4.72065967 1.54269924 9.41664092 3.07794619 14 5 C14 5.33 14 5.66 14 6 C11.03 5.67 8.06 5.34 5 5 C5 4.34 5 3.68 5 3 C4.34 3 3.68 3 3 3 C3.34444881 5.47266765 3.34444881 5.47266765 4 8 C4.66 8.33 5.32 8.66 6 9 C6 9.66 6 10.32 6 11 C6.99 11.33 7.98 11.66 9 12 C7.02 12.33 5.04 12.66 3 13 C3 12.34 3 11.68 3 11 C2.34 11 1.68 11 1 11 C-0.62950412 6.87831311 -1.26264601 4.29299643 0 0 Z " fill="#D26569" transform="translate(61,61)"/>
<path d="M0 0 C0.66 0.33 1.32 0.66 2 1 C2 1.33 2 1.66 2 2 C9.59 2.33 17.18 2.66 25 3 C24.01 4.485 24.01 4.485 23 6 C23 5.34 23 4.68 23 4 C22.01 4.495 22.01 4.495 21 5 C18.26513675 5.26212747 15.55346986 5.46744636 12.8125 5.625 C11.6977832 5.70234375 11.6977832 5.70234375 10.56054688 5.78125 C5.86821367 6.06089825 1.62957605 5.8216731 -3 5 C-1.125 1.125 -1.125 1.125 0 0 Z " fill="#647A9E" transform="translate(158,213)"/>
<path d="M0 0 C3.79588866 0.54226981 5.47211993 2.20127563 8 5 C7.34 5.66 6.68 6.32 6 7 C6 6.34 6 5.68 6 5 C5.34 5 4.68 5 4 5 C4.33 6.65 4.66 8.3 5 10 C0.38 9.01 -4.24 8.02 -9 7 C-9.33 7.66 -9.66 8.32 -10 9 C-10.33 8.01 -10.66 7.02 -11 6 C-4.565 5.505 -4.565 5.505 2 5 C2 3.68 2 2.36 2 1 C1.34 0.67 0.68 0.34 0 0 Z " fill="#5E79A1" transform="translate(274,143)"/>
<path d="M0 0 C-0.66 0 -1.32 0 -2 0 C-2 0.66 -2 1.32 -2 2 C-14.21 2 -26.42 2 -39 2 C-39.33 1.34 -39.66 0.68 -40 0 C-38.63065308 0.00785522 -38.63065308 0.00785522 -37.23364258 0.01586914 C-33.83243167 0.03295631 -30.43126669 0.0454722 -27.0300293 0.05493164 C-25.56062091 0.05994669 -24.09121748 0.06676033 -22.62182617 0.07543945 C-20.50438205 0.08762928 -18.38700417 0.09325669 -16.26953125 0.09765625 C-14.99698486 0.10289307 -13.72443848 0.10812988 -12.41333008 0.11352539 C-0.81653226 -0.27217742 -0.81653226 -0.27217742 0 0 Z " fill="#2B2D57" transform="translate(207,143)"/>
<path d="M0 0 C1.5 1.3125 1.5 1.3125 3 3 C3 3.99 3 4.98 3 6 C4.32 6.66 5.64 7.32 7 8 C7 8.33 7 8.66 7 9 C2.83861737 9.08159574 -0.9472484 8.98248524 -5 8 C-4.45773019 4.20411134 -2.79872437 2.52788007 0 0 Z " fill="#DA7475" transform="translate(227,123)"/>
<path d="M0 0 C-10.66666667 9 -10.66666667 9 -15 9 C-15.33 8.01 -15.66 7.02 -16 6 C-14.68 6 -13.36 6 -12 6 C-12 5.01 -12 4.02 -12 3 C-10.68 3 -9.36 3 -8 3 C-8.33 2.01 -8.66 1.02 -9 0 C-5.52176885 -1.15941038 -3.54104422 -0.70820884 0 0 Z " fill="#486990" transform="translate(196,244)"/>
<path d="M0 0 C0.99 0.66 1.98 1.32 3 2 C2.25 9.625 2.25 9.625 0 13 C-1.32 12.34 -2.64 11.68 -4 11 C-4 10.01 -4 9.02 -4 8 C-3.525625 7.54625 -3.05125 7.0925 -2.5625 6.625 C-0.55416651 4.53633317 -0.38130476 2.8216552 0 0 Z " fill="#4B678F" transform="translate(292,154)"/>
<path d="M0 0 C4.86240125 -0.0838345 9.19987417 0.18295731 14 1 C15.19625 0.95875 16.3925 0.9175 17.625 0.875 C21.25197212 1.0093323 22.43307295 1.53575003 25 4 C21.38883686 4.90208822 18.76993912 4.99618059 15.13671875 4.22265625 C13.80737305 3.94711914 13.80737305 3.94711914 12.45117188 3.66601562 C11.0831543 3.36727539 11.0831543 3.36727539 9.6875 3.0625 C8.29047852 2.76956055 8.29047852 2.76956055 6.86523438 2.47070312 C4.57483581 1.98913215 2.28672729 1.49866228 0 1 C0 0.67 0 0.34 0 0 Z " fill="#7089AC" transform="translate(170,176)"/>
<path d="M0 0 C2 1 2 1 2.6875 2.9375 C3 5 3 5 2 7 C1.34 7 0.68 7 0 7 C0 6.01 0 5.02 0 4 C-0.598125 4.165 -1.19625 4.33 -1.8125 4.5 C-4 5 -4 5 -7 5 C-7.33 3.68 -7.66 2.36 -8 1 C-5.26094655 -0.36952673 -3.02912668 -0.12621361 0 0 Z " fill="#C52325" transform="translate(92,99)"/>
<path d="M0 0 C2.0625 0.4375 2.0625 0.4375 4 1 C4 2.32 4 3.64 4 5 C1.35541621 6.32229189 -0.67761301 6.09677194 -3.625 6.0625 C-4.62789063 6.05347656 -5.63078125 6.04445312 -6.6640625 6.03515625 C-7.43492187 6.02355469 -8.20578125 6.01195312 -9 6 C-6.59027489 3.59027489 -4.04587368 2.49053393 -1 1 C-0.67 0.67 -0.34 0.34 0 0 Z " fill="#023668" transform="translate(272,143)"/>
<path d="M0 0 C2 2 2 2 2.9375 4.5625 C3.288125 5.366875 3.63875 6.17125 4 7 C4.99 7.33 5.98 7.66 7 8 C6.67 8.66 6.34 9.32 6 10 C6.66 10.33 7.32 10.66 8 11 C8.99 12.485 8.99 12.485 10 14 C9.67 14.99 9.34 15.98 9 17 C4.78458709 13.2529663 1.90736716 9.35980829 0 4 C0 2.68 0 1.36 0 0 Z " fill="#D87276" transform="translate(76,94)"/>
<path d="M0 0 C0.33 0.66 0.66 1.32 1 2 C0.04060332 3.69036558 -0.96642853 5.35394174 -2 7 C-2.268125 7.86625 -2.53625 8.7325 -2.8125 9.625 C-4.46671433 12.93342865 -6.66555166 13.62272786 -10 15 C-8.6199929 10.9749793 -6.74702347 8.23179232 -4 5 C-3.2575 4.071875 -2.515 3.14375 -1.75 2.1875 C-1.1725 1.465625 -0.595 0.74375 0 0 Z " fill="#D97076" transform="translate(253,88)"/>
<path d="M0 0 C0.05380578 2.79192205 0.09357669 5.5828141 0.125 8.375 C0.15013672 9.56609375 0.15013672 9.56609375 0.17578125 10.78125 C0.19335473 12.85492015 0.10335168 14.92883241 0 17 C-0.66 17.66 -1.32 18.32 -2 19 C-2.07347656 17.30230469 -2.07347656 17.30230469 -2.1484375 15.5703125 C-2.22346514 14.08851661 -2.29901297 12.606747 -2.375 11.125 C-2.42140625 10.00544922 -2.42140625 10.00544922 -2.46875 8.86328125 C-2.55643831 4.46526812 -2.55643831 4.46526812 -5 1 C-2 0 -2 0 0 0 Z " fill="#B32B30" transform="translate(307,59)"/>
<path d="M0 0 C3.8063457 0.67170806 7.35206816 1.72746564 11 3 C11.66 2.34 12.32 1.68 13 1 C15.625 0.375 15.625 0.375 18 0 C18.33 0.99 18.66 1.98 19 3 C17.68 3 16.36 3 15 3 C15 3.99 15 4.98 15 6 C9.67812773 4.78623966 4.96093728 3.27376292 0 1 C0 0.67 0 0.34 0 0 Z " fill="#DC6769" transform="translate(84,89)"/>
<path d="M0 0 C0.66 0.66 1.32 1.32 2 2 C-5.92 1.34 -13.84 0.68 -22 0 C-22 -0.33 -22 -0.66 -22 -1 C-14.4387934 -1.96139053 -7.32854159 -2.49637572 0 0 Z " fill="#627A9C" transform="translate(162,153)"/>
<path d="M0 0 C1.69141656 0.08963062 3.37959602 0.24577676 5.0625 0.4375 C6.44115234 0.59025391 6.44115234 0.59025391 7.84765625 0.74609375 C8.55792969 0.82988281 9.26820313 0.91367188 10 1 C9.34 2.32 8.68 3.64 8 5 C5.36 4.67 2.72 4.34 0 4 C-0.33 3.01 -0.66 2.02 -1 1 C-0.67 0.67 -0.34 0.34 0 0 Z " fill="#D32023" transform="translate(150,129)"/>
<path d="M0 0 C0.66 0 1.32 0 2 0 C0.83348574 5.92863717 -0.75519358 11.38798394 -3 17 C-3.33 16.01 -3.66 15.02 -4 14 C-3.67 13.34 -3.34 12.68 -3 12 C-2.77532169 10.46331135 -2.59203195 8.92031946 -2.4375 7.375 C-2.35371094 6.55773437 -2.26992188 5.74046875 -2.18359375 4.8984375 C-2.12300781 4.27195312 -2.06242187 3.64546875 -2 3 C-1.34 3 -0.68 3 0 3 C0 2.01 0 1.02 0 0 Z " fill="#DB8083" transform="translate(303,88)"/>
<path d="M0 0 C0.99 0.66 1.98 1.32 3 2 C-0.44615385 6.8 -0.44615385 6.8 -3.25 7.8125 C-4.11625 7.9053125 -4.11625 7.9053125 -5 8 C-5 5 -5 5 -2.5 2.3125 C-1.675 1.549375 -0.85 0.78625 0 0 Z " fill="#35547F" transform="translate(166,206)"/>
<path d="M0 0 C1.32 0.66 2.64 1.32 4 2 C2.5 4.125 2.5 4.125 0 6 C-2.84221272 5.84547193 -5.40827494 5.17428275 -8 4 C-8.33 3.34 -8.66 2.68 -9 2 C-7.6078125 2.3403125 -7.6078125 2.3403125 -6.1875 2.6875 C-3.03173152 3.36319983 -3.03173152 3.36319983 -1.125 1.5625 C-0.75375 1.046875 -0.3825 0.53125 0 0 Z " fill="#043668" transform="translate(169,169)"/>
<path d="M0 0 C3 2 3 2 3.6875 4.625 C3.790625 5.40875 3.89375 6.1925 4 7 C5.32 7.33 6.64 7.66 8 8 C8 8.66 8 9.32 8 10 C5.03 9.505 5.03 9.505 2 9 C2 7.35 2 5.7 2 4 C1.01 4.33 0.02 4.66 -1 5 C-0.67 3.35 -0.34 1.7 0 0 Z " fill="#335A88" transform="translate(115,138)"/>
<path d="M0 0 C4.875 4.75 4.875 4.75 6 7 C4.35 7 2.7 7 1 7 C1 7.66 1 8.32 1 9 C0.01 9.33 -0.98 9.66 -2 10 C-1.38722388 7.03824877 -0.74627478 5.61941217 1 3 C0.34 2.67 -0.32 2.34 -1 2 C-0.67 1.34 -0.34 0.68 0 0 Z " fill="#C41E24" transform="translate(203,125)"/>
<path d="M0 0 C5.44567686 1.02862785 10.11817117 2.24614784 15 5 C14.34 5.66 13.68 6.32 13 7 C13 6.34 13 5.68 13 5 C11.02 5 9.04 5 7 5 C7 4.34 7 3.68 7 3 C5.68 3.33 4.36 3.66 3 4 C2.67 3.01 2.34 2.02 2 1 C1.34 0.67 0.68 0.34 0 0 Z " fill="#DD8186" transform="translate(148,94)"/>
<path d="M0 0 C-1.39655297 3.49873271 -2.71260484 4.70891831 -6.125 6.25 C-7.21167969 6.75273438 -7.21167969 6.75273438 -8.3203125 7.265625 C-9.15175781 7.62914063 -9.15175781 7.62914063 -10 8 C-10 7.01 -10 6.02 -10 5 C-8.3203125 3.61328125 -8.3203125 3.61328125 -6.125 2.3125 C-5.40570313 1.87550781 -4.68640625 1.43851562 -3.9453125 0.98828125 C-2 0 -2 0 0 0 Z " fill="#D87A7B" transform="translate(276,69)"/>
<path d="M0 0 C1.7074998 1.28062485 3.37373596 2.61767557 5 4 C5 4.66 5 5.32 5 6 C5.99 6.33 6.98 6.66 8 7 C5.42786866 8.61949011 4.32330841 9.04408751 1.25 8.625 C0.13625 8.315625 0.13625 8.315625 -1 8 C-1 7.34 -1 6.68 -1 6 C0.32 5.67 1.64 5.34 3 5 C2.2575 4.319375 2.2575 4.319375 1.5 3.625 C0 2 0 2 0 0 Z " fill="#E36F76" transform="translate(205,126)"/>
<path d="M0 0 C1 2 1 2 0.375 4.5625 C-1 7 -1 7 -3.625 7.8125 C-4.40875 7.874375 -5.1925 7.93625 -6 8 C-5.65120368 4.74456771 -4.97866739 3.98126893 -2.4375 1.75 C-1.633125 1.1725 -0.82875 0.595 0 0 Z " fill="#CC4B51" transform="translate(245,101)"/>
<path d="M0 0 C0.66 0.33 1.32 0.66 2 1 C1.814375 1.61875 1.62875 2.2375 1.4375 2.875 C0.76313824 5.04160178 0.76313824 5.04160178 2 7 C-0.31 7.66 -2.62 8.32 -5 9 C-3.50163895 5.88801935 -1.80066242 2.9465385 0 0 Z " fill="#8898AF" transform="translate(170,251)"/>
<path d="M0 0 C3.96 0 7.92 0 12 0 C12 0.66 12 1.32 12 2 C12.66 2.33 13.32 2.66 14 3 C12.41590006 2.88512252 10.83271037 2.75765492 9.25 2.625 C8.36828125 2.55539063 7.4865625 2.48578125 6.578125 2.4140625 C4 2 4 2 0 0 Z " fill="#607C9D" transform="translate(126,149)"/>
<path d="M0 0 C10.55808656 -0.18451025 10.55808656 -0.18451025 15 1 C15 1.33 15 1.66 15 2 C9.62374766 2.84888195 5.34629602 3.0024305 0 2 C0 1.34 0 0.68 0 0 Z " fill="#BE5050" transform="translate(241,131)"/>
<path d="M0 0 C1.75070517 0.11470137 3.50057536 0.24219028 5.25 0.375 C6.22453125 0.44460937 7.1990625 0.51421875 8.203125 0.5859375 C10.89633189 0.98465249 12.66963279 1.63507063 15 3 C15 3.33 15 3.66 15 4 C13.02 4.33 11.04 4.66 9 5 C9 4.34 9 3.68 9 3 C4.545 2.01 4.545 2.01 0 1 C0 0.67 0 0.34 0 0 Z " fill="#E8888D" transform="translate(144,116)"/>
<path d="M0 0 C0.99 1.32 1.98 2.64 3 4 C1.9275 4.144375 0.855 4.28875 -0.25 4.4375 C-2.91662949 4.83749442 -5.41399729 5.27591924 -8 6 C-6.25 4 -6.25 4 -4 2 C-2.68 2 -1.36 2 0 2 C0 1.34 0 0.68 0 0 Z " fill="#04316E" transform="translate(165,211)"/>
<path d="M0 0 C1.65 0.33 3.3 0.66 5 1 C5 2.32 5 3.64 5 5 C3.35 5.33 1.7 5.66 0 6 C-1.125 2.25 -1.125 2.25 0 0 Z " fill="#023C70" transform="translate(109,132)"/>
<path d="M0 0 C2.31 0.33 4.62 0.66 7 1 C6.34 2.98 5.68 4.96 5 7 C3.29115995 5.37660195 1.62553283 3.70680947 0 2 C0 1.34 0 0.68 0 0 Z " fill="#3E5E8D" transform="translate(101,131)"/>
<path d="M0 0 C1.65 0 3.3 0 5 0 C3.74874616 3.75376152 2.4347596 4.24073289 -1 6 C-1.66 6 -2.32 6 -3 6 C-3.33 5.01 -3.66 4.02 -4 3 C-2.68 3 -1.36 3 0 3 C0 2.01 0 1.02 0 0 Z " fill="#456288" transform="translate(184,247)"/>
<path d="M0 0 C1.65 0.33 3.3 0.66 5 1 C5 2.32 5 3.64 5 5 C3.02 5.99 1.04 6.98 -1 8 C0.875 3.125 0.875 3.125 2 2 C1.34 1.34 0.68 0.68 0 0 Z " fill="#5D7A9D" transform="translate(180,233)"/>
<path d="M0 0 C-2.52956528 3.0916909 -5.22454612 3.90931332 -9 5 C-9.33 3.68 -9.66 2.36 -10 1 C-6.61981469 -0.04005702 -3.5219721 -0.08004482 0 0 Z " fill="#526F99" transform="translate(269,166)"/>
<path d="M0 0 C4.84659077 0.59104765 8.60748167 1.97944157 13 4 C12.01 4.66 11.02 5.32 10 6 C10 5.34 10 4.68 10 4 C8.68 4.33 7.36 4.66 6 5 C6 4.34 6 3.68 6 3 C5.01 3.33 4.02 3.66 3 4 C2.67 3.01 2.34 2.02 2 1 C1.34 0.67 0.68 0.34 0 0 Z " fill="#DD7D81" transform="translate(105,78)"/>
<path d="M0 0 C4.72065967 1.54269924 9.41664092 3.07794619 14 5 C14 5.33 14 5.66 14 6 C11.03 5.67 8.06 5.34 5 5 C5 4.34 5 3.68 5 3 C2.525 2.01 2.525 2.01 0 1 C0 0.67 0 0.34 0 0 Z " fill="#E39395" transform="translate(61,61)"/>
<path d="M0 0 C2.97 0 5.94 0 9 0 C6.06171403 2.50298434 3.82097239 3.46930939 0 4 C0 2.68 0 1.36 0 0 Z " fill="#567497" transform="translate(172,253)"/>
<path d="M0 0 C0.33 0.99 0.66 1.98 1 3 C0.67 3.66 0.34 4.32 0 5 C0.66 5 1.32 5 2 5 C1.67 5.99 1.34 6.98 1 8 C0.01 7.67 -0.98 7.34 -2 7 C-1.67 6.34 -1.34 5.68 -1 5 C-1.66 5 -2.32 5 -3 5 C-1.125 1.125 -1.125 1.125 0 0 Z M2 4 C4 5 4 5 4 5 Z " fill="#2F5883" transform="translate(180,219)"/>
<path d="M0 0 C0.99 0 1.98 0 3 0 C1.49776416 4.20626034 -1.28550034 5.73900021 -5 8 C-3.63029745 5.04987143 -2.17390875 2.4347778 0 0 Z " fill="#D76B6E" transform="translate(236,111)"/>
<path d="M0 0 C1.4800841 0.11362262 2.95910074 0.24122908 4.4375 0.375 C5.26121094 0.44460937 6.08492188 0.51421875 6.93359375 0.5859375 C7.95646484 0.79089844 7.95646484 0.79089844 9 1 C9.33 1.66 9.66 2.32 10 3 C8.63875 2.9690625 8.63875 2.9690625 7.25 2.9375 C4.57327412 2.9889755 2.53011948 3.2215017 0 4 C0 2.68 0 1.36 0 0 Z " fill="#D96F74" transform="translate(270,88)"/>
<path d="M0 0 C1.98 0.495 1.98 0.495 4 1 C3.67 2.65 3.34 4.3 3 6 C1.68 6 0.36 6 -1 6 C-1 3 -1 3 0 0 Z " fill="#0F386A" transform="translate(278,148)"/>
<path d="M0 0 C0.66 0 1.32 0 2 0 C2.75 1.75 2.75 1.75 3 4 C1.0625 6.25 1.0625 6.25 -1 8 C-1.04241723 5.66705225 -1.04092937 3.33297433 -1 1 C-0.67 0.67 -0.34 0.34 0 0 Z " fill="#41638F" transform="translate(228,206)"/>
<path d="M0 0 C-6.625 2.125 -6.625 2.125 -10 1 C-9.34 1 -8.68 1 -8 1 C-8 0.34 -8 -0.32 -8 -1 C-4.59745511 -2.2151946 -3.06748874 -1.86240388 0 0 Z " fill="#174B83" transform="translate(133,147)"/>
<path d="M0 0 C4.46840411 0.49648935 5.68987756 0.68987756 9 4 C6.03 3.67 3.06 3.34 0 3 C0 2.01 0 1.02 0 0 Z " fill="#D97879" transform="translate(180,106)"/>
<path d="M0 0 C0.66 0 1.32 0 2 0 C1.40049704 3.68266103 0.75241109 7.34543185 0 11 C-0.33 11 -0.66 11 -1 11 C-1.02688151 9.35425434 -1.04634123 7.70838587 -1.0625 6.0625 C-1.07410156 5.14597656 -1.08570313 4.22945313 -1.09765625 3.28515625 C-1 1 -1 1 0 0 Z " fill="#C62F31" transform="translate(299,96)"/>
<path d="M0 0 C-1.65 1.65 -3.3 3.3 -5 5 C-5.66 3.68 -6.32 2.36 -7 1 C-4.53721199 -0.231394 -2.7204945 -0.07159196 0 0 Z " fill="#415D8C" transform="translate(260,171)"/>
<path d="M0 0 C0.33 0.99 0.66 1.98 1 3 C-4.75 2.25 -4.75 2.25 -7 0 C-4.3333581 -1.33332095 -2.83319697 -0.67102033 0 0 Z " fill="#DA7A7F" transform="translate(103,118)"/>
<path d="M0 0 C1.32 0.66 2.64 1.32 4 2 C3.34 2 2.68 2 2 2 C1.67 2.99 1.34 3.98 1 5 C-0.32 5 -1.64 5 -3 5 C-1.125 1.125 -1.125 1.125 0 0 Z " fill="#C22226" transform="translate(108,105)"/>
<path d="M0 0 C0.33 1.32 0.66 2.64 1 4 C0.01 4.66 -0.98 5.32 -2 6 C-2.66 5.34 -3.32 4.68 -4 4 C-4 3.01 -4 2.02 -4 1 C-2 0 -2 0 0 0 Z " fill="#D61E22" transform="translate(88,99)"/>
<path d="M0 0 C0.66 0 1.32 0 2 0 C2.0825 0.61875 2.165 1.2375 2.25 1.875 C2.81258459 4.18437567 2.81258459 4.18437567 5.0625 5.25 C5.701875 5.4975 6.34125 5.745 7 6 C4.36 5.67 1.72 5.34 -1 5 C-0.67 3.35 -0.34 1.7 0 0 Z " fill="#BE2025" transform="translate(272,130)"/>
<path d="M0 0 C4.95 0.99 4.95 0.99 10 2 C6.29847322 2.92538169 5.36541838 3.08174162 2 2 C1.67 2.99 1.34 3.98 1 5 C0.67 3.35 0.34 1.7 0 0 Z " fill="#B0BAD0" transform="translate(99,126)"/>
<path d="M0 0 C2.64 0.33 5.28 0.66 8 1 C8.33 1.99 8.66 2.98 9 4 C5.17902761 3.46930939 2.93828597 2.50298434 0 0 Z " fill="#DB8388" transform="translate(141,111)"/>
<path d="M0 0 C0.99 0.33 1.98 0.66 3 1 C3 2.65 3 4.3 3 6 C0.69 5.34 -1.62 4.68 -4 4 C-2.68 3.67 -1.36 3.34 0 3 C0 2.01 0 1.02 0 0 Z " fill="#E17071" transform="translate(138,105)"/>
<path d="M0 0 C3.68754757 0.49831724 5.60490662 1.10067643 8 4 C7.01 4.495 7.01 4.495 6 5 C3.98079663 3.69593116 1.98075027 2.36176581 0 1 C0 0.67 0 0.34 0 0 Z " fill="#DA7577" transform="translate(76,84)"/>
<path d="M0 0 C0.99 0.33 1.98 0.66 3 1 C1.84826645 3.46800047 0.95216435 5.04783565 -1 7 C-1.04254356 5.00045254 -1.04080783 2.99958364 -1 1 C-0.67 0.67 -0.34 0.34 0 0 Z " fill="#4B6794" transform="translate(243,183)"/>
<path d="M0 0 C1.32 0 2.64 0 4 0 C4.33 1.98 4.66 3.96 5 6 C3.2925002 4.71937515 1.62626404 3.38232443 0 2 C0 1.34 0 0.68 0 0 Z " fill="#808EA7" transform="translate(143,158)"/>
<path d="M0 0 C0 0.99 0 1.98 0 3 C-2.31 3.66 -4.62 4.32 -7 5 C-6.67 4.01 -6.34 3.02 -6 2 C-2.9375 0.8125 -2.9375 0.8125 0 0 Z " fill="#BE272D" transform="translate(294,62)"/>
</svg>
