<?xml version="1.0" encoding="UTF-8"?>
<svg version="1.1" xmlns="http://www.w3.org/2000/svg" width="406" height="323">
<path d="M0 0 C133.98 0 267.96 0 406 0 C406 106.59 406 213.18 406 323 C272.02 323 138.04 323 0 323 C0 216.41 0 109.82 0 0 Z " fill="#FEFEFE" transform="translate(0,0)"/>
<path d="M0 0 C20.49768876 6.64532996 20.49768876 6.64532996 29.8203125 10.69921875 C33.97321998 12.39813545 38.19583887 13.85212307 42.4375 15.3125 C50.28386576 18.01646474 58.04568946 20.89192327 65.78857422 23.87817383 C72.67710886 26.52356863 79.61080765 29.02596546 86.5625 31.5 C96.71623049 35.12153883 106.74465778 38.99152217 116.72143555 43.07348633 C120.02620847 44.4172786 123.34357795 45.7291411 126.66113281 47.04101562 C134.00166007 50.05078505 138.27957338 52.39869721 141.83984375 59.6640625 C145.38367876 66.79946094 150.56631687 72.81728233 158 76 C167.67085563 77.67023306 177.71366933 77.31947888 187.51000977 77.47680664 C189.89362678 77.51680906 192.27679407 77.56824359 194.66015625 77.62109375 C195.37808853 77.6295079 196.09602081 77.63792206 196.83570862 77.64659119 C203.36904389 77.80391829 209.76004151 78.74735678 215.3125 82.4375 C215.94800781 82.84871094 216.58351563 83.25992188 217.23828125 83.68359375 C219.01629255 85.01217425 220.54569719 86.3219583 222 88 C222 88.66 222 89.32 222 90 C222.886875 89.9175 223.77375 89.835 224.6875 89.75 C228.79836847 90.06025422 230.26513033 90.94338095 233 94 C233.57805215 97.96378615 233.09412209 100.5970516 231 104 C226.25 102.125 226.25 102.125 224 101 C214.0865288 99.67820384 206.19334134 104.49196302 198.1953125 109.89453125 C188.71601063 117.1442777 182.06381288 125.40826178 176.44506836 135.82080078 C170.37389062 146.9966006 162.77334663 156.80579172 154 166 C153.13761719 166.97453125 153.13761719 166.97453125 152.2578125 167.96875 C143.30620108 177.67627528 131.44806105 184.95534449 119.875 191.125 C119.18929932 191.49101318 118.50359863 191.85702637 117.79711914 192.23413086 C113.60775183 194.38656526 109.5679026 195.84912584 105 197 C109.06001902 190.69502928 113.44285785 184.71632562 118.046875 178.796875 C120.30271383 175.79202877 120.30271383 175.79202877 122 171 C116.555 170.01 116.555 170.01 111 169 C112.7937428 165.4125144 114.6103797 162.83243778 117.125 159.75 C117.84945312 158.85796875 118.57390625 157.9659375 119.3203125 157.046875 C119.87460938 156.37140625 120.42890625 155.6959375 121 155 C120.46375 155.0721875 119.9275 155.144375 119.375 155.21875 C111.24610176 156.18138269 103.17033709 156.09123205 95 156 C96.08735551 152.73793347 96.60916315 152.29507741 99.1875 150.25 C106.04567626 144.43652801 111.93763141 137.61853378 118 131 C119.10406629 129.79808487 120.2082286 128.59625793 121.3125 127.39453125 C123.20739397 125.33078832 125.09882955 123.26405524 126.98828125 121.1953125 C129 119 129 119 130 118 C128.65421875 117.87044922 128.65421875 117.87044922 127.28125 117.73828125 C111.11985997 115.91845531 95.85342506 112.47308695 84.8125 99.5 C84.214375 98.675 83.61625 97.85 83 97 C88.66188645 96.82496856 93.92205748 97.5098148 99.5 98.4375 C108.0039922 99.79098115 116.39748598 100.62201075 125 101 C111.25208913 94.30441068 96.75093822 92.243535 81.6875 90.5625 C65.61796795 88.72413845 52.2888929 84.45201071 41.3125 72.02734375 C39.80001136 69.69108897 39.37955981 67.73757512 39 65 C45.3050537 66.11863856 51.40923271 67.62782468 57.5625 69.375 C69.91804115 72.86313774 82.19900608 75.97160916 94.94921875 77.60546875 C97.98130557 77.99758241 100.98737645 78.48058215 104 79 C93.33788379 73.78646021 82.4619991 70.56959624 70.9609375 67.77734375 C66.92702043 66.71830747 63.00851066 65.38811514 59.06640625 64.03125 C55.89694364 62.96534155 52.70658022 62.01033301 49.5 61.0625 C37.99694344 57.52203828 25.92973722 53.60996198 19.04907227 43.03369141 C17.88672725 40.78041377 17.37101357 38.75008034 16.8671875 36.26953125 C16.7007373 35.46749268 16.53428711 34.6654541 16.36279297 33.83911133 C16.24307129 33.23220459 16.12334961 32.62529785 16 32 C16.91249512 32.30591064 17.82499023 32.61182129 18.76513672 32.92700195 C28.99124951 36.35331241 39.22304168 39.7623574 49.45959473 43.15734863 C51.13248447 43.71224546 52.80525773 44.26749362 54.47790527 44.82312012 C59.16455712 46.37954242 63.85371131 47.92795262 68.54693604 49.46444702 C70.00460803 49.94285986 71.46145332 50.42379963 72.91741943 50.90737915 C83.2563889 54.36941099 83.2563889 54.36941099 94 56 C83.29715252 50.29957036 72.66426915 45.60341156 61.16796875 41.75390625 C52.33768683 38.79696924 43.67490387 35.3801499 35 32 C33.82308594 31.54753906 32.64617187 31.09507813 31.43359375 30.62890625 C19.78120594 25.99529702 7.83055237 20.41548343 1.84765625 8.75390625 C0.65450058 5.75727105 0 3.23374924 0 0 Z " fill="#033B73" transform="translate(61,62)"/>
<path d="M0 0 C20.49768876 6.64532996 20.49768876 6.64532996 29.8203125 10.69921875 C33.97321998 12.39813545 38.19583887 13.85212307 42.4375 15.3125 C50.28386576 18.01646474 58.04568946 20.89192327 65.78857422 23.87817383 C72.67710886 26.52356863 79.61080765 29.02596546 86.5625 31.5 C96.71623049 35.12153883 106.74465778 38.99152217 116.72143555 43.07348633 C120.02620847 44.4172786 123.34357795 45.7291411 126.66113281 47.04101562 C134.00166007 50.05078505 138.27957338 52.39869721 141.83984375 59.6640625 C145.61982156 67.27492691 150.74082348 71.74128311 158 76 C155.50556211 78.49443789 153.72485308 78.74473408 150.3125 79.5625 C149.29800781 79.81128906 148.28351563 80.06007813 147.23828125 80.31640625 C140.12514996 81.81797196 133.30556251 82.18260934 126.0625 82.1875 C125.11181641 82.19974609 124.16113281 82.21199219 123.18164062 82.22460938 C115.3081693 82.24088809 108.85806532 81.00813753 101.625 77.75 C96.42504296 75.52333479 91.17223684 73.60904746 85.8125 71.8125 C85.07660645 71.56274414 84.34071289 71.31298828 83.58251953 71.05566406 C79.11216105 69.57718353 74.65612511 68.43935206 70.05151367 67.46264648 C67.38215871 66.86066771 64.83181868 66.02789035 62.25 65.125 C58.02360678 63.6715069 53.78612176 62.32885416 49.5 61.0625 C37.99694344 57.52203828 25.92973722 53.60996198 19.04907227 43.03369141 C17.88672725 40.78041377 17.37101357 38.75008034 16.8671875 36.26953125 C16.7007373 35.46749268 16.53428711 34.6654541 16.36279297 33.83911133 C16.24307129 33.23220459 16.12334961 32.62529785 16 32 C16.91249512 32.30591064 17.82499023 32.61182129 18.76513672 32.92700195 C28.99124951 36.35331241 39.22304168 39.7623574 49.45959473 43.15734863 C51.13248447 43.71224546 52.80525773 44.26749362 54.47790527 44.82312012 C59.16455712 46.37954242 63.85371131 47.92795262 68.54693604 49.46444702 C70.00460803 49.94285986 71.46145332 50.42379963 72.91741943 50.90737915 C83.2563889 54.36941099 83.2563889 54.36941099 94 56 C83.29715252 50.29957036 72.66426915 45.60341156 61.16796875 41.75390625 C52.33768683 38.79696924 43.67490387 35.3801499 35 32 C33.82308594 31.54753906 32.64617187 31.09507813 31.43359375 30.62890625 C19.78120594 25.99529702 7.83055237 20.41548343 1.84765625 8.75390625 C0.65450058 5.75727105 0 3.23374924 0 0 Z " fill="#D22226" transform="translate(61,62)"/>
<path d="M0 0 C0.91091206 27.25988681 -6.76086781 50.82542787 -23.828125 72.25 C-26.04848171 74.9856397 -26.04848171 74.9856397 -28 78 C-28.59611084 77.87302734 -29.19222168 77.74605469 -29.80639648 77.61523438 C-39.24213515 75.74229155 -48.75089593 75.07318049 -58.32348633 74.32275391 C-66.64999307 73.66285271 -74.85604967 72.96823581 -83 71 C-81.67831117 67.23979527 -80.06737277 64.59810264 -77.5 61.5625 C-74.19698293 57.54402797 -71.11698355 53.43741675 -68.125 49.1875 C-50.26075746 23.91688939 -50.26075746 23.91688939 -39 15 C-38.49210937 14.56945312 -37.98421875 14.13890625 -37.4609375 13.6953125 C-31.97398958 9.34359518 -25.52942331 7.32937714 -19 5 C-17.74012171 4.52676784 -16.48101308 4.05148188 -15.22265625 3.57421875 C-13.99417969 3.11660156 -12.76570313 2.65898438 -11.5 2.1875 C-10.3759375 1.76855469 -9.251875 1.34960938 -8.09375 0.91796875 C-5.19176713 0.0569006 -2.99950872 -0.19586344 0 0 Z " fill="#D22226" transform="translate(307,59)"/>
<path d="M0 0 C2.79268315 1.36919886 3.85776315 2.54426508 6 5 C7.19389536 8.93283177 7.44799464 10.96253872 5.8125 14.75 C2.65023059 18.67557582 1.23215647 19.86309373 -3.9375 20.4375 C-8.02528187 20.29259728 -10.12399716 18.96315444 -13 16 C-14.75290038 12.49419924 -14.67770616 8.81620942 -14 5 C-10.09400136 0.21515167 -6.12702804 -1.49825934 0 0 Z " fill="#FDFAFA" transform="translate(280,90)"/>
<path d="M0 0 C1.74991334 -0.02715383 3.49994945 -0.04646551 5.25 -0.0625 C6.71179688 -0.07990234 6.71179688 -0.07990234 8.203125 -0.09765625 C10.65758678 -0.01195577 12.66168914 0.29293934 15 1 C15 1.66 15 2.32 15 3 C10.93148812 4.60848144 8.18960808 5.54353982 4 4 C1.6875 1.9375 1.6875 1.9375 0 0 Z " fill="#EDF0F4" transform="translate(263,150)"/>
<path d="M0 0 C0.66 0.66 1.32 1.32 2 2 C0.39504433 1.88557539 -1.20898119 1.75805306 -2.8125 1.625 C-3.70582031 1.55539063 -4.59914062 1.48578125 -5.51953125 1.4140625 C-8 1 -8 1 -11 -1 C-6.70830186 -2.26226416 -4.09639239 -1.7295879 0 0 Z " fill="#F4CDCE" transform="translate(155,117)"/>
<path d="M0 0 C0.33 0.99 0.66 1.98 1 3 C1.66 3.66 2.32 4.32 3 5 C1.03533587 6.06775224 -0.96855359 7.06553465 -3 8 C-3.66 7.67 -4.32 7.34 -5 7 C-3.35 4.69 -1.7 2.38 0 0 Z " fill="#1F3F79" transform="translate(171,251)"/>
</svg>
